<svg xmlns="http://www.w3.org/2000/svg" xml:space="preserve" viewBox="0 0 1024 1024"><defs><linearGradient id="a"><stop offset="0" stop-color="#0d4300"/><stop offset="1" stop-color="#68f900"/></linearGradient><linearGradient id="b" x1="514.8" x2="514.8" y1="689.6" y2="141.2" gradientUnits="userSpaceOnUse" href="#a"/></defs><path fill="#6cff03" d="M190.4 226.5c-59 1-115.7 44.8-123.7 104.8-5 57-1.2 114.6-2.4 172 .4 82-.8 164.1.6 246.1 2 64.3 60 118.5 124 117.8l271.2.1v82.9l-125.5-.2a49.1 54.3 0 0 0-34.3 15.4l-23 24.7a8.1 9 0 0 0 5.7 15.4h465.5a8 8.8 0 0 0 5.5-15.2l-23.2-24.5a50.1 55.4 0 0 0-34.5-15.2l-127.4-.2v-83l273.4-.2c66.8 1 125.5-57.8 124.5-124.5q.5-195.5 0-390.8c1-66.8-57.7-125.5-124.5-124.6-74-.3-148.1 0-222.2 0 35.9 10.5 69 30 99.5 50 51.6 1.3 104.4-4.5 155 7.6 39.3 16.2 42.3 61.6 42.1 98.2 0 115.3 1.3 230.7-.7 346 2.9 37.6-17.6 81.8-59.6 84.7-77 6.5-154.6 2.3-231.9 3.5-53.2-2-106.4 5.4-159.5 0-91.3-.8-182.8 2-274.1-1.8-39 2.7-76-29.2-74.3-69.2-4.6-87.7-1.3-175.7-2.3-263.6 1.6-54.3-4.7-109.8 7.7-163 16.2-39.4 61.6-42.5 98.2-42.2 30.7-.5 61.4-.2 92.1-.3 29-22.5 62.5-38.6 97.3-50-69.2-.1-138.3.4-207.4-.3q-6-.6-11.8-.4" overflow="visible"/><path fill="url(#b)" d="M290.7 26.3q-24 .5-48 4.3a262 262 0 0 0 26.4 74 231 231 0 0 0 83.7 91.2c36 22 78.7 31.6 120.8 31-48.8 8.7-97 24.7-138.5 52.4a200 200 0 0 0-75 88.8c-15.7 37.3-18.2 79-13 118.8 2.4 19.4 6.8 38.6 12 57.4-.6 3-.4 6.2-2.5 8.6-10.3 19-17.6 40.8-15.6 62.7a60 60 0 0 0 23.3 42.1c17.9 14.1 40.3 20.8 62.4 25 12.9.4 23.5 9.4 31.1 19 14.4 18.8 21.8 41.8 27.5 64.5.3 6 6.6 8.3 10.7 11.6 25.8 16.5 56.6 23.4 86.8 25.9 17 1.3 34 1 50.9.7 33-1.3 66.7-7.2 95.5-24a68 68 0 0 0 14.1-10.3c5.7-23 12.7-46.5 26.7-66 7.6-10.3 18.2-20.1 31.6-21.3 11.4-1.6 22.5-4.8 33.4-8.6 19-7 37.7-18.3 47.3-36.7 9.3-17.9 7.9-39.3 2-58a149 149 0 0 0-12.9-29.7c-.2-2.8-1.5-5.8 0-8.5 12-43.2 18-89.1 9.9-133.6a188 188 0 0 0-48.9-96.5c-32.4-34.2-75.5-56.3-120-70.5a438 438 0 0 0-56.2-13.8c42 .1 84.4-10.2 120-32.8a233 233 0 0 0 83.2-94.4 258 258 0 0 0 23.9-69 289 289 0 0 0-102 .8 216 216 0 0 0-110 58.3c-25.4 25-44.9 56-57.2 89.6A227 227 0 0 0 400 49a241 241 0 0 0-109.4-22.7m.2 15c41.5-.8 83.7 8.2 119.3 30 41 25 72.3 64.9 88.8 109.9 3.1 9.1 6.2 18.5 6.7 28.2-42.3 5.3-86.6 2-125.8-15.9a204 204 0 0 1-87.1-78 264 264 0 0 1-32-72q15-1.9 30.1-2.2m444.2 0q15 .4 30 2.1A254 254 0 0 1 703.5 153a190 190 0 0 1-93.8 52.8c-29 6.8-59.1 7.2-88.6 3.7a190 190 0 0 1 20.2-54.6c21-39.3 53.3-73.2 93.7-92.6 31-15.1 65.7-21.4 100-21M505.7 212c.2.3-.4 1 0 0M309.5 478.6l153.8 85.7c-19.6 13.7-40.3 27-64 32.4a62 62 0 0 1-50-7.8c-17.9-12.3-27.5-33-33.1-53.2a198 198 0 0 1-6.7-54.9zm414.5 0c0 13.5-.5 27.1-3 40.5-3.9 21.4-10.8 43.3-25.5 60a58 58 0 0 1-45 19.6C628 598.2 607 588 588 576.2q-9-5.8-17.8-11.9zM515.6 608.8c5.6.3 8.2 6.4 11 10.4 12 20.2 21 42 29.2 63.9.8 3.7 5.6 11.4-1.3 11.2-3.3-4-16.6 18-36.7 3.2-25.2 14.8-36.4-6-39.7-2.6-6.5-.7-2.8-7.5-2-11.3a401 401 0 0 1 29.7-65.2c2.7-3.6 5-8.5 9.8-9.6" overflow="visible"/><path fill="#6cff03" d="m309.5 478.6.1 12s0 42 18.2 74.2c9.2 16 23.6 30.1 44.8 33.2s47.6-4.3 81.4-27.4l9.3-6.3zm15 24.3 127.9 62.5a140 140 0 0 1-77.8 19c-16.2-2.5-26.9-12.7-34.7-26.4a147 147 0 0 1-15.3-55.1M724 478.6l-.1 12s0 42-18.2 74.2c-9.2 16-23.6 30.1-44.8 33.2s-47.6-4.3-81.4-27.4l-9.3-6.3zm-15 24.3-128.2 62.6c27.2 16.8 63.5 21 78 18.8 16.3-2.4 27-12.6 34.8-26.3a147 147 0 0 0 15.3-55.1" overflow="visible"/><path fill="#6cff03" d="M330.4 75.8c49.5 45.6 100.6 89.6 147.5 138 9.9 10.6 18.2 23.9 31.8 30 14.6 2 23.5-13.5 32.7-22.6 29.3-33.2 63-62 95.2-92.2l58.6-53.2c-72.5 26.8-137.1 77.4-176.3 144.6-11.8 15.4-18.5-15-25.8-22.7a286 286 0 0 0-163.7-122"/><path fill="#6cff03" d="M515.5 608.7c-5.5 1.5-8 7.2-10.6 11.1a428 428 0 0 0-28.5 63.1c-.7 4-5.8 11.3 0 13 6-.6 2.7-8.7 4.4-12a243 243 0 0 1 25-49c3-4.7 6.6-9 9.8-13.4 4.2 3.1 8.4 8.4 10.3 11.9a179 179 0 0 1 23 43.8c2.2 5.3 2.5 11.2 3.8 16.7 4 3.4 7-.4 5.5-3.6-3.6-12.2-9.4-25.3-14.3-37a231 231 0 0 0-21.1-40c-1.7-2.2-4.3-4.6-7.3-4.6" overflow="visible"/></svg>